<svg id="Layer_1" data-name="Layer 1" xmlns="http://www.w3.org/2000/svg" viewBox="0 0 540 146"><defs><style>.cls-1{fill:#2f88f2;stroke:#2f88f2;stroke-miterlimit:10;stroke-width:0.75px;}.cls-2{fill:#fff;}</style></defs><title>light_logon</title><path class="cls-1" d="M190.45,11H165.19v23.5l25.26-14.68Z"/><path class="cls-2" d="M397.29,19.79a19.09,19.09,0,0,1-38.18,0A19.12,19.12,0,0,1,378.49.69C389.06.69,397.29,8.92,397.29,19.79Zm-33.48,0c0,8.22,6.16,15.27,14.39,15.27,7.93,0,14.09-6.76,14.09-15S386.13,4.81,377.9,4.81C370,4.81,363.81,11.27,363.81,19.79Zm11.45,9.69h-4.11V10.68a48.37,48.37,0,0,1,7.05-.29c3.23,0,5,.29,6.16,1.76a4.73,4.73,0,0,1,2.06,4.11c0,2.35-1.76,3.82-3.82,4.41V21c1.76.29,2.94,2.06,3.23,4.41a10,10,0,0,0,1.18,4.4H382.6q-.44-1.32-1.76-4.4c-.29-2.06-1.76-2.94-3.82-2.94h-2Zm0-10.58h2.06c2.35,0,4.11-.88,4.11-2.93,0-1.76-1.18-2.94-4.11-2.94-1.18,0-2.06,0-2.35.29V18.9Z"/><path class="cls-2" d="M329.37,23.9H298.83L256.53,144h27l29.95-92.81,20,57,20.26-16.45Zm27.91,79c-5.29,5-16.16,11.45-20.56,15.56l8.81,25.26H372Z"/><path class="cls-2" d="M265.35,144H238L195.44,93.8V71.19l41.42-47.88h25.26L211.31,81.17Z"/><path class="cls-2" d="M197.5,96.15,237.45,144h27.31L211.31,81.17l1.46-1.47Z"/><path class="cls-2" d="M165.48,42.11v59.33L113.5,23h-.88V65.9l52,78.12h25.85V27.13Z"/><path class="cls-2" d="M165.19,101.14,113.5,23h-.88V65.9l52,78.12h.59Z"/><path class="cls-2" d="M110.56,116.12a76.59,76.59,0,0,0,2.94-22.61V23H88.83V92a48.13,48.13,0,0,1-1.18,11.16,28.12,28.12,0,0,1-4.4,10,25.71,25.71,0,0,1-10,7c-4.11,1.76-9.1,2.34-15.27,2.34a45.41,45.41,0,0,1-15.28-2.34,20.67,20.67,0,0,1-9.1-7,20,20,0,0,1-4.11-10.28,47.87,47.87,0,0,1-.88-11.17V23H2.18V95.27a70.47,70.47,0,0,0,3.23,22.32,38.43,38.43,0,0,0,9.4,15.27c4.41,4.12,10.28,7,17.33,9.11a96.45,96.45,0,0,0,26.14,3.23c10.28,0,19.39-1.18,26.43-3.23s12.93-5.29,17-10A37.78,37.78,0,0,0,110.56,116.12Z"/><path class="cls-2" d="M88.53,97.33a39.84,39.84,0,0,1-.88,5.87,28.12,28.12,0,0,1-4.4,10,25.71,25.71,0,0,1-10,7c-4.11,1.76-9.1,2.34-15.27,2.34a45.3,45.3,0,0,1-15.27-2.34,20.65,20.65,0,0,1-9.11-7,20,20,0,0,1-4.11-10.28,47.87,47.87,0,0,1-.88-11.17V23H2.77V95.27A70.47,70.47,0,0,0,6,117.59a38.43,38.43,0,0,0,9.4,15.27c4.41,4.12,10.28,7,17.33,9.11a96.45,96.45,0,0,0,26.14,3.23c10.28,0,19.38-1.18,26.43-3.23a12.63,12.63,0,0,0,4.12-1.76C88.53,140.5,88.53,97.33,88.53,97.33Z"/><path class="cls-1" d="M284.14,99.38l27.32,35.54s77-72.84,125.71-94.57c0,0-41.71,10-121.89,68.72l-14.39-20Z"/><path class="cls-1" d="M436.74,125.84l10.53-31.48h12L441,144.78H428.7l-2-28.57-10.87,28.57H403.53L401,94.36h11.53l.69,31.34,11.57-31.34h10.08Z"/><path class="cls-1" d="M489.9,123.38H471.37l-2.11,12.05h21.92l-1.63,9.35H455.79l8.72-50.42h33.84l-1.63,9.39h-22l-1.87,10.63h18.56Z"/><path class="cls-1" d="M494.64,144.78l8.73-50.42,16,0q9.5,0,14.17,3.6t4.26,10q-.52,8-8.73,11.29a8.56,8.56,0,0,1,4.59,3.75,11.06,11.06,0,0,1,1.4,6.53,14.52,14.52,0,0,1-5.77,11.26q-5.28,3.94-14.45,3.94Zm15.59-21.43-2.12,12.05,7.1,0a9,9,0,0,0,5.54-1.64,6.45,6.45,0,0,0,2.64-4.37q1-5.76-4.44-6Zm1.35-8,5.57,0q7.73-.18,8.66-5.94t-5.89-5.73l-6.3,0Z"/></svg>